<svg version="1.2" xmlns="http://www.w3.org/2000/svg" viewBox="0 0 160 160" width="160" height="160">
	<title>New Project</title>
	<style>
		.s0 { fill: #ffffff } 
	</style>
	<g id="&lt;Group&gt;">
		<g id="&lt;Group&gt;">
			<path id="&lt;Compound Path&gt;" fill-rule="evenodd" class="s0" d="m79.3 156.6c-0.9 0-1.8-0.2-2.7-0.7-2.4-1.3-3.5-4.2-2.4-6.8l24.3-62.8-13.9 0.4c-4 0.1-7.7-1.9-9.8-5.3-2.1-3.4-2.2-7.5-0.3-11l30.9-57.8c1.9-3.6 5.7-5.8 9.8-5.8h20c4 0 7.6 2.1 9.6 5.6 2 3.5 2 7.7-0.1 11.2l-16.2 26.8h10.6c4.2 0 8 2.3 9.9 6.1 1.9 3.8 1.5 8.2-1 11.6l-3.5 4.7c-1.8 2.3-5.1 2.8-7.4 1.1-2.3-1.8-2.8-5.1-1.1-7.4l3.5-4.7c0.1-0.1 0.2-0.3 0-0.6-0.1-0.3-0.3-0.3-0.4-0.3h-15c-2.9 0-5.6-1.5-7-4.1-1.4-2.5-1.4-5.6 0.1-8.1l18.4-30.6c0.1-0.1 0.2-0.2 0.1-0.5-0.2-0.3-0.4-0.3-0.5-0.3h-20c-0.2 0-0.4 0.1-0.5 0.3l-30.9 57.7c-0.1 0.1-0.2 0.3 0 0.6 0.1 0.2 0.4 0.2 0.5 0.2l14.4-0.4q0.1 0 0.3 0c3.3 0 6.4 1.6 8.3 4.3 2 2.8 2.5 6.4 1.2 9.6l-11.1 28.8 27-36.3c1.7-2.3 5-2.8 7.4-1.1 2.3 1.8 2.8 5.1 1.1 7.4l-49.2 66c-1 1.5-2.7 2.2-4.4 2.2zm4.7-3.7q0 0 0 0z"/>
		</g>
		<g id="&lt;Group&gt;">
			<g id="&lt;Group&gt;">
				<g id="Folder 1">
					<path id="&lt;Compound Path&gt;" class="s0" d="m72 36.4q1.1 0 2.1 0.1c2.3 0.1 4.3-1.8 4.3-4.2 0-2.2-1.7-4.1-3.9-4.2q-0.7-0.1-1.4-0.1c-20.9-0.5-39.2 14.9-42 35.6-3.5 25.4 16.3 47.1 40.9 47.1q1.3 0 2.5 0c2.2-0.2 3.9-2.1 3.9-4.3 0-2.4-2-4.3-4.4-4.2q-0.8 0.1-1.6 0.1c-17.1 0.2-31.8-13.2-33.2-30.3-1.5-19.3 13.8-35.6 32.8-35.6z"/>
				</g>
			</g>
		</g>
		<g id="&lt;Group&gt;">
			<path id="&lt;Path&gt;" class="s0" d="m69.9 5.3c0-1.3 1.1-2.3 2.3-2.3h5.1c1.2 0 2.3 1 2.3 2.3v13.5c0 1.2-1.1 2.3-2.3 2.3h-5.1c-1.2 0-2.3-1.1-2.3-2.3z"/>
		</g>
		<g id="&lt;Group&gt;">
			<path id="&lt;Path&gt;" class="s0" d="m69.9 116.7c0-1.3 1.1-2.3 2.3-2.3h5.1c1.2 0 2.3 1 2.3 2.3v13.5c0 1.3-1.1 2.3-2.3 2.3h-5.1c-1.2 0-2.3-1-2.3-2.3z"/>
		</g>
		<g id="&lt;Group&gt;">
			<path id="&lt;Path&gt;" class="s0" d="m30.9 115.5l-3.9-4c-0.8-0.7-0.8-2 0-2.8l9.9-9.9c0.8-0.8 2.1-0.8 2.9 0l3.9 3.9c0.8 0.8 0.8 2.1 0 2.9l-9.9 9.9c-0.8 0.8-2.1 0.8-2.9 0z"/>
		</g>
		<g id="&lt;Group&gt;">
			<path id="&lt;Path&gt;" class="s0" d="m10 65.2c0-1.2 1-2.3 2.3-2.3h13.5c1.2 0 2.3 1.1 2.3 2.3v5.1c0 1.2-1.1 2.3-2.3 2.3h-13.5c-1.3 0-2.3-1.1-2.3-2.3z"/>
		</g>
		<g id="&lt;Group&gt;">
			<path id="&lt;Path&gt;" class="s0" d="m27 23.9l3.9-3.9c0.8-0.8 2.1-0.8 2.9 0l9.9 9.9c0.8 0.8 0.8 2.1 0 2.9l-3.9 3.9c-0.8 0.8-2.1 0.8-2.9 0l-9.9-9.9c-0.8-0.8-0.8-2.1 0-2.9z"/>
		</g>
	</g>
</svg>