<svg version="1.2" xmlns="http://www.w3.org/2000/svg" viewBox="0 0 160 160" width="160" height="160">
	<title>New Project</title>
	<style>
		.s0 { fill: #ffffff } 
	</style>
	<g id="&lt;Group&gt;">
		<path id="&lt;Path&gt;" class="s0" d="m74.5 85q0.8-3.2 1.5-6.5 3.2-14.1 6.4-28.2c0.3-1.4 0.9-2.6 2.6-2.7 1.6-0.1 2.4 0.8 3 2.2 2.2 5.4 4.5 10.8 6.6 16.2 0.5 1.4 1.2 2 2.7 1.8 0.6-0.1 1.2-0.1 1.8 0 1 0 1.7-0.3 2.3-1 1.6-1.8 3.7-2.4 6-1.7 2.2 0.8 3.6 2.4 3.9 4.7 0.4 2.3-0.6 4.1-2.4 5.5-2.2 1.5-5.5 1.2-7.4-0.8-0.7-0.8-1.4-1.1-2.4-1.1-1.5 0.1-2.9 0-4.3 0-2 0.1-3.4-0.7-4.2-2.7-1.1-3.1-2.4-6.1-3.7-9.1-0.2-0.5-0.5-0.9-0.7-1.4q-0.2 0-0.4 0c-0.3 1.4-0.7 2.7-1 4.1q-4.1 18.1-8.2 36.2c-0.4 1.9-1.3 2.7-2.9 2.7-1.5-0.1-2.4-1.1-2.7-2.9q-3.1-18.1-6.2-36.1-1-5.8-2-11.6-0.2-0.1-0.4-0.1c-0.2 0.6-0.5 1.2-0.6 1.8q-3.3 13.4-6.6 26.8c-0.3 1-0.4 1.9-0.7 2.9-0.4 1.3-1.1 2.3-2.7 2.4-1.5 0.1-2.3-0.8-2.8-2.2q-2.7-7.9-5.3-15.8c-0.2-0.5-0.5-1-0.8-1.7-1.3 1.7-2.4 3.2-3.5 4.8-0.8 1.3-1.9 1.8-3.3 1.8q-6.5-0.1-12.9 0c-5.4 0-10.8 0.1-16.3 0.2-1.3 0-1.8-0.4-1.8-1.8 0.2-4.3-0.7-3.7 3.9-3.8 8.4 0 16.8-0.1 25.2-0.2 0.7 0 1.5-0.5 1.9-1 1.8-2.4 3.4-4.8 5.1-7.3 0.8-1.1 1.7-1.8 3.1-1.6 1.5 0.2 2.1 1.3 2.5 2.5q1.8 5.5 3.6 10.9c0.2 0.6 0.4 1.1 0.8 2.1 0.3-0.9 0.6-1.3 0.7-1.8q3.8-15.6 7.7-31.2 0.3-1.4 0.7-2.9c0.5-1.6 1.4-2.4 2.8-2.4 1.4 0 2.4 1 2.7 2.7 0.7 3.6 1.3 7.2 1.9 10.9q2.4 13.6 4.7 27.3c0.5 2.6 0.9 5.2 1.3 7.8 0.1 0.4 0.3 0.9 0.4 1.3q0.2 0 0.4 0z"/>
		<path id="&lt;Path&gt;" class="s0" d="m20.6 79.9c2.6 0 5.1 0 7.6 0.1 0.4 0 0.9 0.7 1 1.2 2.2 7.9 6.2 14.7 12 20.4 22.1 21.8 59.8 14.8 72.4-13.6 11.8-26.3-3.6-56.6-31.8-62.5-24.3-5.1-47.9 10.4-53.1 35-0.3 1.1-0.6 1.4-1.8 1.4-2.2-0.1-4.4 0-6.7 0 2.1-20.9 21.4-45 51.7-45.5 27.9-0.5 52.3 20.9 53.9 50.3 1.5 28.5-19.4 52.4-46.7 55.6-31 3.6-54.1-18.5-58.5-42.4z"/>
		<path id="&lt;Path&gt;" class="s0" d="m154.3 142.9c0.1 3.4-1.9 6.4-5 7.6-3.4 1.4-6.5 0.8-9.1-1.7-4.7-4.7-9.4-9.4-14.1-14.1-3.1-3.1-6.3-6.2-9.4-9.4-2.3-2.5-3.1-5.4-1.9-8.7 1.3-3.3 3.7-5.1 7.2-5.4 2.4-0.2 4.6 0.5 6.3 2.2q11.9 11.9 23.8 23.8c1.5 1.6 2.3 3.5 2.2 5.7z"/>
		<path id="&lt;Path&gt;" class="s0" d="m116.2 104.9c0.6 0.5 1.5 1 1.8 1.6 0.2 0.7 0.2 1.8-0.3 2.3-1.8 2-3.7 3.9-5.6 5.8-1 0.8-2.1 0.7-3-0.1-0.9-0.9-1.2-2-0.3-3 1.8-2 3.8-4 5.8-5.9 0.4-0.3 0.9-0.4 1.6-0.7z"/>
	</g>
</svg>