<svg version="1.2" xmlns="http://www.w3.org/2000/svg" viewBox="0 0 160 160" width="160" height="160">
	<title>New Project</title>
	<style>
		.s0 { fill: #ffffff } 
	</style>
	<g id="&lt;Group&gt;">
		<path id="&lt;Path&gt;" class="s0" d="m120.9 99c-2.5-2.5-5-5-7.4-7.4-1.1-1.1-2.7-2.1-3.1-3.4-0.4-1.2 0.7-2.8 1-4.3 2.4-11.5-0.1-22-7.3-31.3-7.7-9.9-18-15-30.6-14.9-17.3 0.1-32.5 12.3-36.8 29.1-5 19.5 7.4 40.3 27.2 45.6 6.2 1.7 12.2 1.7 18.4 0.5 0.5-0.1 1.2 0.1 1.5 0.4 3.4 3.4 6.7 6.7 10.1 10.1 0.1 0.1 0.2 0.3 0.4 0.5-3.3 1.1-5.8 3.2-8.2 5.5-1.3 1.3-2.4 2.9-2.8 4.8-0.3 1.1-0.7 2.2-1.2 3.2-1.2 2.4-3.2 3.6-5.9 3.7q-2.2 0.1-4.4 0c-2.9-0.1-4.9-1.4-6.1-4-0.4-0.7-0.8-1.5-0.9-2.2-0.6-3.1-2.4-5.2-4.8-7.1-3.4-2.6-7.2-4.5-11.4-5.4-3.2-0.7-6.1 0.1-8.6 1.9-4 2.9-6.6 2.9-10.4-0.3q-1.9-1.6-3.7-3.5c-2.2-2.3-2.5-5.1-1.2-8 0.2-0.6 0.4-1.1 0.7-1.6 2.6-3.7 2.6-7.7 1.5-11.8-1-3.8-2.8-7.1-5.7-9.9-1.7-1.8-3.8-3-6.3-3.5-4.7-1.1-6.5-3.3-6.5-8.1 0-1.7 0-3.4 0.1-5.2 0.2-3.4 2.1-5.8 5.4-6.3 7.9-1 14.2-11.2 13.5-19.2-0.1-1.7-0.9-3.4-1.4-5.1-0.1-0.4-0.4-0.7-0.6-1.1-2.4-4.5-2-7.4 1.7-10.9 1-1 2.1-1.9 3.2-2.8 3.3-2.5 6-2.5 9.3-0.1 1 0.7 2.1 1.3 3.2 1.7 2.4 1.1 4.9 0.9 7.3 0.1 4.4-1.3 8.3-3.4 11.6-6.6 1.4-1.4 2.4-3 2.9-4.9 0.5-1.5 1.1-3 2-4.3 2.7-3.7 11.8-3.8 14.5-0.2 1.1 1.4 1.5 3.2 2.3 4.8 0.6 1.3 1.1 2.8 2.1 3.8 4.2 4.5 9.5 7.3 15.7 8.1 2.3 0.2 4.6-0.7 6.5-2.1 4.1-3 6.9-3 10.8 0.4q1.8 1.6 3.5 3.4c2.1 2.3 2.5 4.9 1.4 7.8-0.2 0.4-0.4 0.9-0.7 1.3-3.7 5.7-2.7 11.4 0.2 17 2.3 4.5 5.6 7.8 10.8 8.8 0.5 0.1 0.9 0.3 1.4 0.5 2.6 1 4 3 4.2 5.8 0.1 1.9 0.1 3.8 0.1 5.6 0 4.5-1.8 6.8-6.1 7.7-5.2 1.1-8.6 4.3-10.8 8.9-0.6 1.4-1 2.9-1.6 4.5z"/>
		<path id="&lt;Compound Path&gt;" fill-rule="evenodd" class="s0" d="m51.4 68c3 3 5.8 5.9 8.7 8.8q3.1 3.1 6.2 6.2 3.1 3.1 6.3 0 3.5-3.4 6.9-6.9c2.2-2.2 2.2-4.3 0-6.5-4.5-4.5-9.1-8.9-13.7-13.4-0.4-0.4-0.8-1-1.5-1.9 2.1-0.6 3.9-1.5 5.9-1.8 6.3-0.7 12.4 0.1 18 3.3 9.4 5.4 14.4 16.6 12 27.1-0.5 2.1-0.1 3.5 1.4 5 15.3 15.1 30.5 30.4 45.8 45.6 2.3 2.3 4.1 4.8 4.5 8.2 0.5 5-2.1 10-6.3 12.2-5 2.5-10.3 1.8-14.2-2-4.4-4.2-8.7-8.5-13-12.8-11.4-11.5-22.9-22.9-34.3-34.4-1-1.1-2.1-1.4-3.5-1.4-3.6 0-7.3 0.3-10.8-0.4-10.6-2.1-18.3-10.6-20-21.5-0.7-4.3-0.9-8.5 1.2-12.5 0.1-0.3 0.2-0.5 0.4-0.9zm94.7 75.6c0-3.3-2.7-6-5.9-6-3.3 0-5.9 2.7-5.9 6 0 3.3 2.6 5.9 5.9 5.9 3.2 0 5.9-2.6 5.9-5.9z"/>
	</g>
</svg>