<svg version="1.2" xmlns="http://www.w3.org/2000/svg" viewBox="0 0 160 160" width="160" height="160">
	<title>New Project</title>
	<style>
		.s0 { fill: #ffffff } 
		.s1 { fill: #ffffff;stroke: #ffffff;stroke-miterlimit:10 } 
	</style>
	<g id="&lt;Group&gt;">
		<path id="&lt;Compound Path&gt;" fill-rule="evenodd" class="s0" d="m151.7 151.5h-143.9c1-2.1 1.9-3.6 2.5-5.2 0.4-1 0.5-2.1 0.6-3.2 0-9 0-18 0-27 0-4.7 0.4-5.1 4.9-5.2 4.9 0 9.9 0.1 14.8 0 3.3-0.1 4.6 1.2 4.5 4.5-0.2 9.1-0.1 18.1-0.1 27.1 0 1.2 0 2.5 0 3.9h4.6v-4.1q0-25.1 0-50.3c0-4.7 0.3-4.9 5-4.9q6.7 0 13.4 0c5.3 0 5.4 0.1 5.4 5.2q0 24.8 0 49.6v4.4h4.6v-4.5q0-33 0-65.9c0-5.1 0.4-5.5 5.4-5.5q6.7 0 13.3 0c5.1 0 5.5 0.5 5.5 5.4q0 33.7 0 67.4c0 1 0.1 2 0.1 3.2h4.5v-4.1q0-16.7 0-33.5c0-4.8 0.2-5 4.9-5 4.7 0 9.4 0.2 14-0.1 3.6-0.1 5 1 4.9 4.8-0.2 11.2 0 22.3 0 33.5v4.4c1.6 0.1 2.8 0.1 4.6 0.2v-4.6q0-42.5 0-84.9c0-5.5 0.3-5.8 5.9-5.8 4.7 0 9.4 0.1 14.1 0 3 0 4.2 1.3 4.2 4.4q-0.1 42.9 0 85.7c0 2.1-1.1 4.6 1.9 5.9 0.6 0.3 0.3 2.5 0.4 4.2zm-49.9-5.3h13.8v-37h-13.8zm-57.2 0.1h13.8v-53.9h-13.8zm28.8-0.1h13.5v-70.5h-13.5zm57.1 0h13.5v-89.6h-13.5zm-114.3-0.1h13.5v-30.2h-13.5z"/>
		<path id="&lt;Compound Path&gt;" fill-rule="evenodd" class="s1" d="m138.5 22.9c-1.2 0-2.7 0.3-3.5 1.1q-9.2 8.9-18.1 18.1c-0.7 0.8-1.1 2.3-1 3.5 0.2 3.7-2 7-5.6 8.1-3 0.9-6.9-0.8-8-4.2-0.9-3-2.9-4.1-5.4-5-2.1-0.9-4.2-1.7-6.3-2.6-2.8-1.3-5.4-2.8-8.3-0.2-0.5 0.5-1.8 0.5-2.6 0.2-3.6-1.4-5.8 0.7-8.3 2.7-4.2 3.3-8.5 6.4-12.6 9.8-1.2 1-2.1 2.7-2.3 4.3-0.8 5.1-4.8 7.8-9.9 6.7-1.2-0.3-2.7-0.2-3.7 0.5q-6.8 4.2-13.3 8.8c-1 0.7-1.7 2.1-1.9 3.3-0.7 4.5-4.3 7.5-8.5 6.7-3.6-0.7-6.4-4.8-5.7-8.2 1-4.5 5.1-6.7 9.6-5.5 1.2 0.3 2.7 0.1 3.7-0.5 3.6-2.2 7-4.7 10.5-6.9 2.6-1.7 4.8-3.1 5.1-6.8 0.3-3.8 4.8-5.8 8.8-5 1.2 0.2 2.7-0.1 3.7-0.8q8.4-6.2 16.6-12.7c0.8-0.7 1.3-2 1.4-3 0.4-4 2.8-7 6.3-7.6 3.1-0.6 6.4 1.7 7.8 5.4 0.1 0.2 0.1 0.5 0.1 0.7 1.3 2.9 15.2 8.1 18 6.7 0.9-0.4 2-1 2.8-0.8 4 1 6-1.6 8.4-4 4.8-4.9 9.7-9.6 14.5-14.6 1-1.1 1.6-2.7 2.4-4.1-0.8-4.7 2.3-8.3 6.3-8.5 3.6-0.1 7.4 3.7 7.4 7.3-0.1 4-4.1 7.3-8.4 7.1zm-26.3 24c0-1.9-1.5-3.5-3.5-3.5-2 0-3.5 1.6-3.5 3.5 0 2 1.5 3.6 3.5 3.6 2 0 3.5-1.6 3.5-3.6zm-28.6-12.3c0-1.9-1.6-3.5-3.6-3.5-1.9 0-3.5 1.6-3.5 3.5 0 2 1.6 3.6 3.5 3.6 2 0 3.6-1.6 3.6-3.6zm-31 24.2c0-2-1.6-3.6-3.6-3.6-1.9 0-3.5 1.6-3.5 3.6 0 1.9 1.6 3.5 3.5 3.5 2 0 3.6-1.6 3.6-3.5zm-31.8 15.7q0-0.1-0.1-0.2 0 0.1-0.1 0.2c-1.9 0-3.5 1.5-3.5 3.5 0 2 1.6 3.5 3.5 3.5 2 0 3.6-1.5 3.6-3.5 0-1.9-1.5-3.4-3.4-3.5zm122.6-58.8c0-2-1.5-3.6-3.5-3.6-1.9 0-3.5 1.6-3.5 3.6 0 1.9 1.6 3.5 3.5 3.5 2 0 3.5-1.6 3.5-3.5z"/>
	</g>
</svg>