<svg version="1.2" xmlns="http://www.w3.org/2000/svg" viewBox="0 0 150 150" width="150" height="150">
	<title>New Project</title>
	<style>
		.s0 { fill: #404040 } 
	</style>
	<g id="&lt;Group&gt;">
		<g id="&lt;Group&gt;">
			<path id="&lt;Compound Path&gt;" fill-rule="evenodd" class="s0" d="m75.3 144.5c-38.6 0-69.9-31.2-69.9-69.9 0-38.6 31.3-69.8 69.9-69.8 38.6 0 69.8 31.2 69.8 69.8 0 38.7-31.2 69.9-69.8 69.9zm61.3-69.9c0-33.9-27.4-61.3-61.3-61.3-33.9 0-61.3 27.4-61.3 61.3 0 33.9 27.4 61.4 61.3 61.4 33.9 0 61.3-27.5 61.3-61.4z"/>
		</g>
		<g id="&lt;Group&gt;">
			<path id="&lt;Path&gt;" class="s0" d="m91.2 103.7h-32.6c-6.1 0-11-4.9-11-11v-5.6c0-5.2 4.3-9.5 9.5-9.5h39.4c4.5 0 8.1-3.7 8.1-8.1v-10.1c0-4-3.2-7.2-7.1-7.2h-28.3v-3.4h28.3c5.8 0 10.5 4.8 10.5 10.6v10.1c0 6.3-5.2 11.5-11.5 11.5h-39.4c-3.4 0-6.1 2.7-6.1 6.1v5.6c0 4.2 3.4 7.6 7.6 7.6h32.6z"/>
		</g>
		<g id="&lt;Group&gt;">
			<path id="&lt;Compound Path&gt;" fill-rule="evenodd" class="s0" d="m57.6 61.9h-9v-22.7h9.4c7.3 0 13.2 5 13.2 11.1 0 6.4-6.1 11.6-13.6 11.6zm-5.6-2.9h5.6c5.6 0 10.2-3.9 10.2-8.7 0-4.5-4.4-8.2-9.8-8.2h-6z"/>
		</g>
		<g id="&lt;Group&gt;">
			<path id="&lt;Compound Path&gt;" fill-rule="evenodd" class="s0" d="m88.9 113.6c-11.5 0-20.5-5.1-20.5-11.7 0-6.5 9-11.6 20.5-11.6 8.6 0 15.9 6.3 18.7 9 0.7 0.7 1.1 1.6 1.1 2.6 0 1-0.4 2-1.1 2.7-2.8 2.7-10.1 9-18.7 9zm0-19.9c-10.1 0-17.1 4.4-17.1 8.2 0 3.9 7 8.2 17.1 8.2 7.4 0 13.8-5.5 16.3-7.9q0.1-0.2 0.1-0.3 0 0-0.1-0.2c-2.5-2.4-8.9-8-16.3-8z"/>
		</g>
		<g id="&lt;Group&gt;">
			<path id="&lt;Path&gt;" class="s0" d="m37.4 44.4h11.9v2.8h-11.9z"/>
		</g>
		<g id="&lt;Group&gt;">
			<path id="&lt;Path&gt;" class="s0" d="m37.4 53.8h11.9v2.9h-11.9z"/>
		</g>
	</g>
</svg>