<svg version="1.2" xmlns="http://www.w3.org/2000/svg" viewBox="0 0 150 150" width="150" height="150">
	<title>New Project</title>
	<style>
		.s0 { fill: #404040 } 
	</style>
	<g id="&lt;Group&gt;">
		<g id="&lt;Group&gt;">
			<path id="&lt;Compound Path&gt;" fill-rule="evenodd" class="s0" d="m75.3 145.2c-38.6 0-69.9-31.3-69.9-69.9 0-38.6 31.3-69.8 69.9-69.8 38.6 0 69.8 31.2 69.8 69.8 0 38.6-31.2 69.9-69.8 69.9zm61.3-69.9c0-33.9-27.4-61.3-61.3-61.3-33.9 0-61.3 27.4-61.3 61.3 0 33.9 27.4 61.3 61.3 61.3 33.9 0 61.3-27.4 61.3-61.3z"/>
		</g>
		<path id="&lt;Path&gt;" class="s0" d="m108.7 60.7c-7.3-5.7-17.6-5.2-24 1.4-6.2 6.4-12.3 12.9-18.5 19.3-2.1 2.2-4.2 4.6-6.7 6.3-6 4.2-13.5 2.3-17.5-3.8-4.4-6.4-2.2-14.3 2.4-18.2 5.1-4.4 12.8-4 17.6 1q1 1 1.9 2h-7.3c-1.4 0-2.6 1.2-2.6 2.6 0 0.7 0.3 1.3 0.8 1.8 0.4 0.5 1.1 0.7 1.8 0.7h10.3c2.9 0 5.3-2.4 5.3-5.3v-11.7c0-1.4-1.1-2.6-2.5-2.6-1.4 0-2.6 1.2-2.6 2.6v6.9c-4.3-4.6-9.5-7.5-16.2-6.8-7.8 0.7-14.1 6.5-16.3 14.2-2.5 9 2.1 18.1 8.8 22.1 7.4 4.4 16.6 3 22.7-3.4 5.2-5.4 10.4-10.8 15.7-16.2 2.1-2.3 4.2-4.6 6.3-6.9 7-7.3 18.7-4.4 21.9 5.3 1.6 4.9-0.3 11.5-4.3 14.9-4.3 3.6-10.2 4.1-14.8 1-2-1.4-3.8-3.3-5.5-5-1.4-1.4-2.6-1.5-4.2-0.2-1.3 1.2-1.1 2.6-0.2 3.8 4.3 5.3 9.4 9.3 19 9.1 5.1-0.2 10.6-3.8 14.3-10.8 4.2-8 1.1-19.1-5.6-24.1z"/>
	</g>
</svg>