<svg version="1.2" xmlns="http://www.w3.org/2000/svg" viewBox="0 0 150 150" width="150" height="150">
	<title>New Project</title>
	<style>
		.s0 { fill: #404040 } 
	</style>
	<g id="&lt;Group&gt;">
		<g id="&lt;Group&gt;">
			<g id="&lt;Group&gt;">
				<path id="&lt;Compound Path&gt;" fill-rule="evenodd" class="s0" d="m75.3 144.7c-38.6 0-69.9-31.2-69.9-69.8 0-38.6 31.3-69.9 69.9-69.9 38.6 0 69.8 31.3 69.8 69.9 0 38.6-31.2 69.8-69.8 69.8zm61.3-69.8c0-33.9-27.4-61.3-61.3-61.3-33.9 0-61.3 27.4-61.3 61.3 0 33.9 27.4 61.3 61.3 61.3 33.9 0 61.3-27.4 61.3-61.3z"/>
			</g>
		</g>
		<g id="&lt;Group&gt;">
			<g id="&lt;Group&gt;">
				<path id="&lt;Path&gt;" class="s0" d="m68.7 46.6c-0.6 1.1-0.9 2.3-0.9 3.6 0 0.9 0.1 1.7 0.4 2.5l-4.5 2.5-7.6 4.2v11.1h-5.1v-14.2l11.7-6.4z"/>
			</g>
			<g id="&lt;Group&gt;">
				<path id="&lt;Path&gt;" class="s0" d="m77.8 34v8.9q-1.1-0.4-2.4-0.4-1.1 0-2.2 0.4-0.3 0-0.5 0.1v-9z"/>
			</g>
		</g>
		<g id="&lt;Group&gt;">
			<g id="&lt;Group&gt;">
				<path id="&lt;Path&gt;" class="s0" d="m78.3 34v9.1q-0.2-0.1-0.5-0.2-1.1-0.4-2.4-0.4-1.1 0-2.2 0.4v-8.9z"/>
			</g>
			<g id="&lt;Group&gt;">
				<path id="&lt;Path&gt;" class="s0" d="m100 56.3v14.2h-5.1v-11.1l-7.7-4.3-4.5-2.4q0.4-1.2 0.4-2.5c0-1.3-0.3-2.6-0.9-3.7l6 3.4z"/>
			</g>
		</g>
		<g id="&lt;Group&gt;">
			<g id="&lt;Group&gt;">
				<path id="&lt;Compound Path&gt;" fill-rule="evenodd" class="s0" d="m88.2 50.2c0 1.7-0.3 3.4-1 4.9-1.9 4.6-6.5 7.9-11.8 7.9-5.2 0-9.8-3.2-11.7-7.8q-1-2.3-1-5 0-0.1 0-0.3c0.1-6 4.4-11 10-12.2q0.2-0.1 0.5-0.1 1.1-0.2 2.2-0.2 1.3 0 2.4 0.3 0.3 0 0.5 0c5.6 1.3 9.8 6.2 9.9 12.2q0 0.1 0 0.3zm-5.5 2.5q0.4-1.2 0.4-2.5c0-1.3-0.3-2.6-0.9-3.7-0.9-1.5-2.2-2.8-3.9-3.4q-0.2-0.1-0.5-0.2-1.1-0.4-2.4-0.4-1.1 0-2.2 0.4-0.3 0-0.5 0.1c-1.7 0.7-3.2 2-4 3.6-0.6 1.1-0.9 2.3-0.9 3.6 0 0.9 0.1 1.7 0.4 2.5 1.1 3 3.9 5.2 7.2 5.2 3.4 0 6.3-2.2 7.3-5.2z"/>
			</g>
		</g>
		<g id="&lt;Group&gt;">
			<path id="&lt;Compound Path&gt;" fill-rule="evenodd" class="s0" d="m62.4 69.3c0-1.7 1.3-3 2.9-3h20c1.6 0 2.9 1.3 2.9 3v19.9c0 1.7-1.3 3-2.9 3h-20c-1.6 0-2.9-1.3-2.9-3zm4.1 15.8c0 1.6 1.3 3 3 3h11.6c1.6 0 3-1.4 3-3v-11.6c0-1.6-1.4-3-3-3h-11.6c-1.7 0-3 1.4-3 3z"/>
		</g>
		<g id="&lt;Group&gt;">
			<path id="&lt;Path&gt;" class="s0" d="m52.9 114.4h-2.8v-15.4l-15-15 2-2 15.8 15.8z"/>
		</g>
		<g id="&lt;Group&gt;">
			<path id="&lt;Path&gt;" class="s0" d="m101.4 114.4h-2.8v-16.6l15.8-15.8 2 2-15 15z"/>
		</g>
		<g id="&lt;Group&gt;">
			<path id="&lt;Path&gt;" class="s0" d="m100 98.4h-48.5"/>
			<path id="&lt;Path&gt;" class="s0" d="m51.5 97h48.5v2.9h-48.5z"/>
		</g>
	</g>
</svg>